<?xml version="1.0" encoding="UTF-8" standalone="no"?>
<!-- Created with Inkscape (http://www.inkscape.org/) -->

<svg
   width="211.09045mm"
   height="66.404419mm"
   viewBox="0 0 211.09045 66.404419"
   version="1.1"
   id="svg1"
   xml:space="preserve"
   xmlns="http://www.w3.org/2000/svg"
   xmlns:svg="http://www.w3.org/2000/svg"><defs
     id="defs1"><linearGradient
       id="swatch26"><stop
         style="stop-color:#4d4221;stop-opacity:1;"
         offset="0"
         id="stop26" /></linearGradient><linearGradient
       id="swatch25"><stop
         style="stop-color:#4d4221;stop-opacity:1;"
         offset="0"
         id="stop25" /></linearGradient><linearGradient
       id="swatch14"><stop
         style="stop-color:#000000;stop-opacity:1;"
         offset="0"
         id="stop14" /></linearGradient></defs><path
     style="font-weight:bold;font-size:52.9167px;font-family:Inter;-inkscape-font-specification:'Inter Bold';fill:#366ba5;fill-opacity:1;stroke:none;stroke-width:0.53;stroke-dasharray:none;stroke-opacity:0.93"
     d="m 65.437353,61.447291 h -9.30176 v -29.01633 h 9.30176 z m 37.155377,-20.56723 v 20.56723 h -9.353437 v -14.49525 c 0,-1.41249 -0.0344,-2.60966 -0.10335,-3.59151 -0.0689,-0.99908 -0.25839,-1.80868 -0.56845,-2.4288 -0.31005,-0.62011 -0.78375,-1.06797 -1.4211,-1.34358 -0.62011,-0.29283 -1.49861,-0.43925 -2.6355,-0.43925 -0.91295,0 -1.80006,0.18948 -2.66134,0.56844 -0.86127,0.36173 -1.63642,0.74931 -2.32544,1.16272 v 20.56723 h -9.30176 v -29.01633 h 9.30176 v 3.20394 c 1.60197,-1.25746 3.13504,-2.23931 4.59921,-2.94556 1.46417,-0.70625 3.08336,-1.05937 4.85759,-1.05937 1.91203,0 3.60012,0.43064 5.06429,1.29191 1.46417,0.84405 2.609657,2.0929 3.436477,3.74655 1.86035,-1.56752 3.66903,-2.79914 5.42603,-3.69487 1.757,-0.89573 3.47955,-1.34359 5.16765,-1.34359 3.13504,0 5.51216,0.93879 7.13135,2.81637 1.63642,1.87758 2.45463,4.58198 2.45463,8.1132 v 18.88775 h -9.35344 v -14.49525 c 0,-1.42971 -0.0344,-2.6355 -0.10335,-3.61735 -0.0517,-0.98185 -0.23253,-1.78284 -0.5426,-2.40296 -0.29283,-0.62011 -0.75792,-1.06797 -1.39527,-1.34358 -0.63734,-0.29283 -1.53306,-0.43925 -2.68717,-0.43925 -0.77515,0 -1.53307,0.1378 -2.27377,0.41341 -0.74069,0.25838 -1.64503,0.69763 -2.71301,1.31775 z m 64.49222,1.36942 c 0,3.58291 -0.81821,6.79546 -2.45463,9.63766 -1.63642,2.82498 -3.70348,4.99539 -6.20117,6.51124 -1.87758,1.13688 -3.93603,1.92925 -6.17534,2.37712 -2.23931,0.44786 -4.89204,0.67179 -7.95818,0.67179 h -13.56507 v -38.47313 h 13.95265 c 3.13503,0 5.83943,0.267 8.1132,0.80099 2.27377,0.51677 4.1858,1.25746 5.73609,2.22209 2.65273,1.61919 4.73701,3.80683 6.25285,6.56291 1.53307,2.73885 2.2996,5.96863 2.2996,9.68933 z m -10.25777,-0.0775 c 0,-2.53215 -0.46509,-4.69395 -1.39527,-6.4854 -0.91295,-1.80867 -2.36851,-3.22116 -4.36666,-4.23747 -1.01631,-0.49954 -2.05845,-0.83544 -3.12643,-1.00769 -1.05075,-0.18948 -2.64411,-0.28422 -4.78007,-0.28422 h -2.50631 v 24.08123 h 2.50631 c 2.35989,0 4.09106,-0.10335 5.19349,-0.31006 1.10243,-0.22393 2.17902,-0.62011 3.22977,-1.18855 1.80868,-1.03353 3.13504,-2.41157 3.97909,-4.13412 0.84405,-1.73977 1.26608,-3.88435 1.26608,-6.43372 z m 50.74628,7.49309 c 0,1.86035 -0.37896,3.52261 -1.13688,4.98678 -0.74069,1.46416 -1.76561,2.67856 -3.07475,3.64319 -1.51584,1.13688 -3.18671,1.94648 -5.01261,2.42879 -1.80868,0.48231 -4.10828,0.72347 -6.89881,0.72347 h -16.79485 v -38.47313 h 14.9345 c 3.10059,0 5.36574,0.10335 6.79545,0.31006 1.44694,0.20671 2.87666,0.66318 4.28915,1.36943 1.46417,0.74069 2.54937,1.73977 3.25561,2.99723 0.72347,1.24024 1.08521,2.66134 1.08521,4.26331 0,1.86035 -0.49093,3.50539 -1.47278,4.9351 -0.98185,1.41249 -2.36851,2.51493 -4.15996,3.3073 v 0.2067 c 2.51493,0.49954 4.50447,1.53307 5.96864,3.10059 1.48139,1.56752 2.22208,3.63458 2.22208,6.20118 z m -12.71241,-15.813 c 0,-0.63735 -0.16364,-1.27469 -0.49092,-1.91203 -0.31006,-0.63734 -0.86989,-1.11104 -1.67949,-1.4211 -0.72347,-0.27561 -1.6278,-0.42202 -2.71301,-0.43925 -1.06798,-0.0345 -2.57521,-0.0517 -4.52169,-0.0517 h -0.93018 v 8.13904 h 1.5503 c 1.56751,0 2.90249,-0.0258 4.00492,-0.0775 1.10243,-0.0517 1.97232,-0.22392 2.60966,-0.51677 0.89573,-0.39619 1.48139,-0.90434 1.757,-1.52445 0.27561,-0.63735 0.41341,-1.36943 0.41341,-2.19625 z m 2.4288,15.65797 c 0,-1.22301 -0.24116,-2.1618 -0.72347,-2.81637 -0.46509,-0.67179 -1.26607,-1.17133 -2.40296,-1.49862 -0.77515,-0.22393 -1.84313,-0.3445 -3.20394,-0.36173 -1.36081,-0.0172 -2.78192,-0.0258 -4.26331,-0.0258 h -2.17041 v 9.58598 h 0.72347 c 2.79053,0 4.78869,-0.009 5.99447,-0.0258 1.20579,-0.0172 2.31683,-0.24113 3.33313,-0.67179 1.03353,-0.43064 1.73978,-0.99908 2.11874,-1.70532 0.39619,-0.72347 0.59428,-1.5503 0.59428,-2.48047 z"
     id="path30"
     aria-label="MimDB" /><text
     xml:space="preserve"
     style="font-style:normal;font-variant:normal;font-weight:bold;font-stretch:normal;font-size:67.4021px;font-family:Inter;-inkscape-font-specification:'Inter Bold';writing-mode:lr-tb;direction:ltr;fill:#366ba5;fill-opacity:1;stroke:none;stroke-width:6.3687;stroke-dasharray:none;stroke-opacity:1"
     x="-2.0622327"
     y="52.0835"
     id="text30"
     transform="scale(0.84761242,1.1797845)"><tspan
       id="tspan30"
       style="fill:#366ba5;fill-opacity:1;stroke-width:6.3687"
       x="-2.0622327"
       y="52.0835">M</tspan></text><text
     xml:space="preserve"
     style="font-style:normal;font-variant:normal;font-weight:bold;font-stretch:normal;font-size:21.897px;font-family:Inter;-inkscape-font-specification:'Inter Bold';writing-mode:lr-tb;direction:ltr;fill:#d0a850;fill-opacity:1;stroke:none;stroke-width:2.06901;stroke-dasharray:none;stroke-opacity:1"
     x="55.670185"
     y="23.933491"
     id="text31"><tspan
       id="tspan31"
       style="stroke-width:2.06901"
       x="55.670185"
       y="23.933491">ᛟ</tspan></text></svg>
